<?xml version="1.0" encoding="UTF-8" standalone="no" ?>
<!DOCTYPE svg PUBLIC "-//W3C//DTD SVG 1.1//EN" "http://www.w3.org/Graphics/SVG/1.1/DTD/svg11.dtd">
<svg xmlns="http://www.w3.org/2000/svg" xmlns:xlink="http://www.w3.org/1999/xlink" version="1.1" width="1080" height="1080" viewBox="0 0 1080 1080" xml:space="preserve">
<desc>Created with Fabric.js 5.2.4</desc>
    <defs>
</defs>
    <g transform="matrix(1 0 0 1 540 540)" id="532a223c-ba21-4e68-8ea0-69fc8cb90e68">
<rect style="stroke: none; stroke-width: 1; stroke-dasharray: none; stroke-linecap: butt; stroke-dashoffset: 0; stroke-linejoin: miter; stroke-miterlimit: 4; fill: rgb(255,255,255); fill-rule: nonzero; opacity: 1; visibility: hidden;" vector-effect="non-scaling-stroke" x="-540" y="-540" rx="0" ry="0" width="1080" height="1080"/>
</g>
    <g transform="matrix(1 0 0 1 540 540)" id="0cc211a0-a104-4955-8220-5acb0ff4e2d7">
</g>
    <g transform="matrix(1 0 0 1 540 540)">
<g style="" vector-effect="non-scaling-stroke">
		<g transform="matrix(1 0 0 1 0 0)">
<rect style="stroke: none; stroke-width: 1; stroke-dasharray: none; stroke-linecap: butt; stroke-dashoffset: 0; stroke-linejoin: miter; stroke-miterlimit: 4; fill: rgb(190,46,221); fill-rule: nonzero; opacity: 1; visibility: hidden;" vector-effect="non-scaling-stroke" x="-540" y="-540" rx="0" ry="0" width="1080" height="1080"/>
</g>
    <g transform="matrix(6.5 0 0 6.2 -0.03 -1.03)">
<path style="stroke: rgb(0,0,0); stroke-width: 0; stroke-dasharray: none; stroke-linecap: butt; stroke-dashoffset: 0; stroke-linejoin: miter; stroke-miterlimit: 4; fill: #EE5A24; fill-rule: nonzero; opacity: 1;" vector-effect="non-scaling-stroke" transform=" translate(4.41, -5.82)"
      d="M 38.4 -64.6 C 51.2 -59 64.3 -51.8 71.2 -40.8 C 78.1 -29.8 78.9 -14.9 77.5 -0.8 C 76 13.2 72.3 26.4 67.1 40.4 C 61.8 54.3 55.1 69 43.6 78.4 C 32.2 87.9 16.1 92.1 -0.1 92.4 C -16.4 92.6 -32.8 88.9 -45.6 80.2 C -58.4 71.5 -67.6 58 -74.7 43.8 C -81.8 29.6 -86.8 14.8 -86.9 -0.1 C -87.1 -15 -82.5 -30 -75.4 -44.2 C -68.4 -58.5 -58.8 -71.9 -45.9 -77.5 C -32.9 -83 -16.4 -80.6 -1.9 -77.4 C 12.7 -74.2 25.5 -70.2 38.4 -64.6 Z" stroke-linecap="round"/>
</g>
</g>
</g>
    <g transform="matrix(NaN NaN NaN NaN 0 0)">
<g style="">
</g>
</g>
</svg>
