<svg width="115" height="34" viewBox="0 0 115 34" fill="none" xmlns="http://www.w3.org/2000/svg">
<path fill-rule="evenodd" clip-rule="evenodd" d="M68.4649 22.2275C68.1858 22.5951 67.2751 23.6929 66.1422 23.6929C64.6101 23.6929 64.2885 22.6712 64.2885 21.8144C64.2885 20.4052 65.4241 19.7534 68.4649 19.0402V22.2275ZM72.2499 23.9535C72.2055 23.8441 72.0861 23.7821 71.9685 23.8085L71.9313 23.8175C71.582 23.8894 71.3131 23.869 71.1251 23.7485C70.8578 23.5765 70.7279 23.1893 70.7279 22.5648V16.9155C70.7279 14.7091 69.3428 13.5904 66.6109 13.5904C64.1635 13.5904 62.2465 14.6907 62.2465 16.0953C62.2465 16.8175 62.7098 17.3394 63.3939 17.4179C63.8409 17.469 64.2671 17.2768 64.5769 16.9663C65.1785 16.3632 65.1004 15.6462 64.3711 14.8761C64.8024 14.4472 65.5666 14.1935 66.438 14.1935C67.8584 14.1935 68.4644 14.9936 68.4644 16.8689V18.2964C68.1313 18.3943 67.8197 18.4869 67.2499 18.6139C66.1 18.8705 64.5224 19.2116 63.3326 19.8363C62.3502 20.3475 61.8521 21.1551 61.8521 22.2367C61.8521 23.4137 62.6654 24.7883 64.9576 24.7883C66.2408 24.7883 67.391 24.2097 68.5715 22.9692C68.673 24.2585 69.1875 24.7415 70.4349 24.7415C71.0349 24.7415 71.5149 24.6086 72.0856 24.3464C72.2399 24.2754 72.3136 24.1048 72.2499 23.9535Z" fill="white"/>
<path fill-rule="evenodd" clip-rule="evenodd" d="M97.0079 14.1873C95.6225 14.1873 94.0327 14.7546 94.0327 19.1779C94.0327 22.5515 95.0777 24.1911 97.2271 24.1911C99.2842 24.1911 100.202 22.6451 100.202 19.1779C100.202 15.8197 99.1568 14.1873 97.0079 14.1873ZM97.1305 24.7883C93.9248 24.7883 91.5073 22.3962 91.5073 19.224C91.5073 16.1175 94.0301 13.5904 97.1305 13.5904C100.27 13.5904 102.73 16.024 102.73 19.1313C102.73 22.6253 99.8234 24.7883 97.1305 24.7883Z" fill="white"/>
<path fill-rule="evenodd" clip-rule="evenodd" d="M42.3902 21.9254V17.8947H43.939C46.2502 17.8947 48.0084 17.4044 49.1649 16.4376C50.3737 15.4271 50.6273 14.1467 50.6273 13.2508C50.6273 9.56506 47.0783 8.79157 44.1007 8.79157L44.1126 8.79126H38.0734C37.9367 8.79126 37.8254 8.90269 37.8254 9.03965V9.05615V9.05085C37.8254 9.17738 37.9023 9.29006 38.0209 9.33364C38.5588 9.53176 40.02 9.25302 40.02 10.823L40.0201 21.9232C40.0201 22.7308 39.6627 23.3002 38.0292 23.4548C37.8998 23.4672 37.8018 23.5735 37.8018 23.7021V23.7401C37.8018 23.877 37.9131 23.9885 38.0497 23.9885H44.5019C44.6386 23.9885 44.7498 23.877 44.7498 23.7401V23.7061C44.7498 23.5777 44.6484 23.4691 44.5188 23.459C42.7442 23.3166 42.3881 22.7658 42.3881 21.9232V17.9017M47.959 13.2043C47.959 15.7688 47.3281 17.1816 44.1026 17.1816H42.3922V9.4327H44.1719C47.5089 9.4327 47.959 11.3392 47.959 13.2043Z" fill="white"/>
<path fill-rule="evenodd" clip-rule="evenodd" d="M53.2312 17.7983C53.4884 15.4784 54.472 14.2066 56.0168 14.2066C56.7899 14.2066 57.363 14.4034 57.7683 14.8089C58.3251 15.3657 58.5604 16.3714 58.4679 17.7983H53.2312ZM56.1945 13.5904C53.1248 13.5904 50.6274 16.1488 50.6274 19.2938C50.6274 22.4775 52.9687 24.7883 56.1945 24.7883C58.9053 24.7883 60.2242 23.2975 60.9802 22.1762C61.0547 22.066 61.0221 21.9197 60.906 21.8433L60.8703 21.8199C60.7535 21.7433 60.5907 21.7647 60.5006 21.8694C59.5039 23.0196 58.6316 23.6855 57.125 23.6855C55.2195 23.6855 53.1837 22.4769 53.1837 19.0852V19.0602C53.1806 18.9103 53.1845 18.705 53.1905 18.5134H60.9863C61.0077 18.5134 61.025 18.4981 61.0267 18.4787L61.0313 18.4209C61.1411 17.0297 60.7136 15.7804 59.8276 14.9026C58.9604 14.0442 57.704 13.5904 56.1945 13.5904Z" fill="white"/>
<path fill-rule="evenodd" clip-rule="evenodd" d="M86.376 17.9241C86.3752 17.9238 86.3744 17.9238 86.3736 17.9236C84.3125 17.3732 83.5094 16.8159 83.5094 15.9364C83.5094 14.9341 84.3448 14.2067 85.4961 14.2067C86.8504 14.2067 87.4303 14.8229 88.8597 17.0985L88.8786 17.1288C88.8855 17.1402 88.8986 17.1474 88.9124 17.1474H89.1084C89.2529 17.1474 89.3704 17.0353 89.3704 16.898V13.6279C89.3704 13.6071 89.3528 13.5904 89.331 13.5904H89.0725C88.9937 13.5904 88.9198 13.6237 88.8699 13.6817L88.4138 14.2103C87.8377 13.9079 86.8996 13.5904 85.9583 13.5904C83.5911 13.5904 81.9377 14.9836 81.9377 16.9781C81.9377 18.8503 83.2415 19.5518 85.4926 20.1307C87.6801 20.7009 88.4555 21.2938 88.4555 22.3962C88.4555 23.6209 87.2084 24.1718 86.3232 24.1718C84.6764 24.1718 83.9798 23.5891 82.4016 20.8892L82.383 20.8572C82.3762 20.8452 82.363 20.8377 82.3487 20.8377H82.1511C82.0067 20.8377 81.8892 20.9496 81.8892 21.0871V24.7508C81.8892 24.7714 81.9067 24.7883 81.9286 24.7883H82.1964C82.2654 24.7883 82.3328 24.7616 82.3817 24.7153L83.1033 24.0282C83.9479 24.5272 85.2106 24.7883 86.0312 24.7883C87.2625 24.7883 88.2749 24.417 88.9591 23.7142C89.569 23.088 89.9051 22.2006 89.9051 21.2154C89.9051 19.509 88.9484 18.617 86.376 17.9241Z" fill="white"/>
<path fill-rule="evenodd" clip-rule="evenodd" d="M74.4545 23.4605C74.4545 24.0357 74.2991 24.2239 73.3253 24.2817C73.1841 24.2902 73.0732 24.4013 73.0732 24.5348C73.0732 24.6745 73.1941 24.7883 73.3429 24.7883H78.1532C78.2994 24.7883 78.4184 24.6763 78.4184 24.5389C78.4184 24.4035 78.3062 24.2922 78.1625 24.2855C77.0492 24.2351 76.7611 24.0657 76.7611 23.4601V16.8282C77.5526 15.5901 78.122 14.9421 79.0825 14.7464C79.0358 14.9027 79.0055 15.0905 79.0055 15.2425C79.0055 16.0481 79.6042 16.6106 80.4608 16.6106C81.3026 16.6106 81.8908 16.0481 81.8908 15.2425C81.8908 14.4804 81.3847 13.5904 79.9581 13.5904C78.7885 13.5904 77.6706 14.2208 76.7108 15.7293V14.0235C76.7108 13.8495 76.5585 13.7098 76.3737 13.7144L73.3429 13.7905C73.1958 13.7944 73.081 13.9054 73.081 14.0432V14.0801C73.081 14.2052 73.1779 14.3123 73.3058 14.3292C74.3162 14.4642 74.4555 14.916 74.4546 15.3841L74.4545 23.4605Z" fill="white"/>
<path fill-rule="evenodd" clip-rule="evenodd" d="M106.011 13.6652C106.079 13.6652 106.143 13.6907 106.192 13.737C106.243 13.785 106.272 13.8498 106.272 13.919L106.283 15.8199C106.283 15.8199 107.239 13.5904 110.344 13.5904H110.371C112.306 13.5904 113.416 14.7936 113.416 16.8908V23.454C113.416 24.0324 113.567 24.2218 114.51 24.2795C114.647 24.2878 114.755 24.3993 114.755 24.5337C114.755 24.674 114.638 24.7883 114.494 24.7883H110.306C110.162 24.7883 110.044 24.6737 110.044 24.5329C110.044 24.3967 110.149 24.2854 110.283 24.2742C111.044 24.2109 111.165 24.0235 111.165 23.454V17.5308C111.165 15.5751 110.595 14.8134 109.131 14.8134C108.142 14.8134 107.332 15.6554 106.827 16.3615C106.827 16.3615 106.569 16.6772 106.289 17.2708L106.32 23.4538C106.32 24.0223 106.438 24.2096 107.177 24.2736C107.311 24.2849 107.415 24.3962 107.415 24.527C107.415 24.6737 107.298 24.7883 107.154 24.7883H102.992C102.848 24.7883 102.731 24.674 102.731 24.5334C102.731 24.3993 102.838 24.2878 102.975 24.2792C103.919 24.2213 104.069 24.0319 104.069 23.454V15.3522C104.069 14.8793 103.934 14.4229 102.95 14.2867C102.825 14.2695 102.731 14.1614 102.731 14.0351V13.9979C102.731 13.8586 102.843 13.7466 102.986 13.7426L106.011 13.6652Z" fill="white"/>
<path fill-rule="evenodd" clip-rule="evenodd" d="M25.3125 2.18902C32.5268 6.28218 34.2058 15.4606 29.1867 24.7467C24.7752 32.9098 15.1428 36.396 7.96564 32.24C0.786848 28.0835 -0.614026 16.4883 2.47084 9.81574C6.95017 0.126718 17.3419 -2.33457 25.3125 2.18902ZM16.329 26.0672C16.1038 25.8957 15.8511 25.7778 15.5966 25.7281C15.5097 25.7115 15.4207 25.7024 15.333 25.7024C14.8522 25.7024 14.3811 25.9609 14.073 26.3957C13.8154 26.7564 13.7101 27.1876 13.7784 27.6064C13.8218 27.8727 13.9239 28.1042 14.0747 28.2767C14.2441 28.472 14.5033 28.6207 14.8241 28.7103C15.01 28.7606 15.2005 28.7874 15.3908 28.7874H15.3912C15.8058 28.7874 16.1789 28.666 16.4689 28.4357C16.8058 28.1674 16.9894 27.7843 16.9853 27.3581C16.9817 26.8604 16.7361 26.3772 16.329 26.0672ZM25.6684 8.82343C27.1148 10.3337 27.5654 12.6256 27.3138 14.505C27.0262 16.6483 25.6981 18.6316 23.4886 19.9465C21.7365 20.9893 19.4347 21.4055 17.1696 21.4253C17.1515 21.7764 17.0799 22.9861 17.0438 23.1776C16.9906 23.4599 16.8896 23.6121 16.7658 23.77C16.5226 24.08 16.1007 24.2802 15.6815 24.3971C15.3483 24.4897 15.0189 24.5296 14.7852 24.5296C14.7458 24.5296 14.7072 24.5274 14.6693 24.5227C14.423 24.4954 14.1497 24.3824 13.9806 24.1977C13.8118 24.0132 13.716 23.78 13.6935 23.5155L13.6748 23.2767C13.6267 23.0709 13.3643 12.6564 13.4154 12.8417C13.4533 11.5939 15.5133 11.3761 16.6311 11.5966C17.7511 11.8174 17.4675 13.1483 17.4372 14.7843C17.4372 14.7843 17.384 16.936 17.2807 19.2092C18.7068 19.1546 19.8397 18.7571 20.8998 18.242C23.0411 17.2039 24.1747 15.6117 24.1747 13.2663C24.1747 10.9208 21.8398 8.29442 17.5331 8.29442C13.2264 8.29442 11.3777 9.35677 9.29232 11.044C8.82218 11.4243 8.46009 11.8076 8.11771 12.0599C7.77517 12.3124 6.86576 12.3511 6.6219 11.7606C6.32813 11.0485 6.87725 10.255 7.19977 9.87084C7.70603 9.26796 8.95536 8.05369 10.34 7.34818C11.9258 6.53862 13.866 5.66674 16.5669 5.60009C19.0104 5.53986 22.8686 5.73338 25.6477 8.80319" fill="white"/>
</svg>
